<svg width="32" height="32" viewBox="0 0 32 32" fill="none" xmlns="http://www.w3.org/2000/svg">
<path d="M24.6654 16.8667V21.8C24.6654 25.96 20.7854 29.3334 15.9987 29.3334C11.212 29.3334 7.33203 25.96 7.33203 21.8V16.8667C7.33203 21.0267 11.212 24 15.9987 24C20.7854 24 24.6654 21.0267 24.6654 16.8667Z" stroke="#000100" stroke-width="2" stroke-linecap="round" stroke-linejoin="round"/>
<path d="M24.6654 10.1998C24.6654 11.4132 24.332 12.5332 23.7454 13.4932C22.3187 15.8398 19.3854 17.3332 15.9987 17.3332C12.612 17.3332 9.6787 15.8398 8.25203 13.4932C7.66536 12.5332 7.33203 11.4132 7.33203 10.1998C7.33203 8.11984 8.30536 6.23984 9.86536 4.87984C11.4387 3.5065 13.5987 2.6665 15.9987 2.6665C18.3987 2.6665 20.5587 3.5065 22.132 4.8665C23.692 6.23984 24.6654 8.11984 24.6654 10.1998Z" stroke="#000100" stroke-width="2" stroke-linecap="round" stroke-linejoin="round"/>
<path d="M24.6654 10.1998V16.8665C24.6654 21.0265 20.7854 23.9998 15.9987 23.9998C11.212 23.9998 7.33203 21.0265 7.33203 16.8665V10.1998C7.33203 6.03984 11.212 2.6665 15.9987 2.6665C18.3987 2.6665 20.5587 3.5065 22.132 4.8665C23.692 6.23984 24.6654 8.11984 24.6654 10.1998Z" stroke="#000100" stroke-width="2" stroke-linecap="round" stroke-linejoin="round"/>
</svg>
