<svg width="32" height="32" viewBox="0 0 32 32" fill="none" xmlns="http://www.w3.org/2000/svg">
<path d="M8 13.3332V10.6665C8 6.25317 9.33333 2.6665 16 2.6665C22.6667 2.6665 24 6.25317 24 10.6665V13.3332M16 24.6665C16.8841 24.6665 17.7319 24.3153 18.357 23.6902C18.9821 23.0651 19.3333 22.2172 19.3333 21.3332C19.3333 20.4491 18.9821 19.6013 18.357 18.9761C17.7319 18.351 16.8841 17.9998 16 17.9998C15.1159 17.9998 14.2681 18.351 13.643 18.9761C13.0179 19.6013 12.6667 20.4491 12.6667 21.3332C12.6667 22.2172 13.0179 23.0651 13.643 23.6902C14.2681 24.3153 15.1159 24.6665 16 24.6665Z" stroke="#000100" stroke-width="2" stroke-linecap="round" stroke-linejoin="round"/>
<path d="M22.668 29.3335H9.33464C4.0013 29.3335 2.66797 28.0002 2.66797 22.6668V20.0002C2.66797 14.6668 4.0013 13.3335 9.33464 13.3335H22.668C28.0013 13.3335 29.3346 14.6668 29.3346 20.0002V22.6668C29.3346 28.0002 28.0013 29.3335 22.668 29.3335Z" stroke="#000100" stroke-width="2" stroke-linecap="round" stroke-linejoin="round"/>
</svg>
